# xmcd
#
# Track frame offsets:
#	150
#	12045
#	27355
#	45685
#	70485
#	92640
#	112132
#	131187
#	148347
#	180805
#	195262
#	211425
#	225177
#	237395
#
# Disc length: 3333 seconds
#
# Revision: 1
# Processed by: cddbd v1.4PL0 Copyright (c) Steve Scherf et al.
# Submitted via: audiograbber 1.82.02
#
DISCID=bf0d030e
DTITLE=Michael "Hawkeye" Herman - Blues Alive
DYEAR=1997
DGENRE=Blues
TTITLE0=The Great River Road
TTITLE1=Your Mind Is On Vacation
TTITLE2=Statesboro Blues
TTITLE3=Nobody Knows You When You're Down And Out
TTITLE4=The Great Flood Of '93
TTITLE5=Stones In My Passway/Kindhearted Woman Blues
TTITLE6=Rocket To Chicago
TTITLE7=Lost Mind
TTITLE8=Sitting On Top Of The World
TTITLE9=I've Got The World On A String
TTITLE10=Come On In My Kitchen
TTITLE11=Man Or Mouse
TTITLE12=Key To The Highway
TTITLE13=Hawk's Woried Blues
EXTD=
EXTT0=
EXTT1=
EXTT2=
EXTT3=
EXTT4=
EXTT5=
EXTT6=
EXTT7=
EXTT8=
EXTT9=
EXTT10=
EXTT11=
EXTT12=
EXTT13=
PLAYORDER=
